<svg width="512" height="512" version="1.1" viewBox="0 0 135.47 135.47" xmlns="http://www.w3.org/2000/svg">
 <g transform="translate(0 -161.53)" stroke="#08bed0">
  <path transform="matrix(.26458 0 0 .26458 0 161.53)" d="m366.23 215.59c-5.4861 0-10.694 1.4583-15.625 4.375-4.9306 2.9167-9.2194 7.0312-12.865 12.344-3.6458 5.2778-5.4688 11.91-5.4688 19.896 0 6.6667 0.91949 12.708 2.7598 18.125 1.8403 5.4167 4.5666 9.4271 8.1777 12.031 3.6111 2.6042 8.2125 3.9062 13.803 3.9062 6.7014 0 11.996-1.9091 15.885-5.7285 3.9236-3.8542 5.8848-8.8902 5.8848-15.105 0-6.7014-2.0994-12.274-6.3008-16.719-4.2014-4.4444-9.0972-6.666-14.688-6.666-2.6389 0-5.1228 0.50282-7.4492 1.5098-2.3264 0.97223-4.7743 2.5347-7.3438 4.6875 0.83333-4.1667 2.1714-7.6382 4.0117-10.416 2.6736-3.9931 5.8327-6.9438 9.4785-8.8535 3.6458-1.9444 7.1695-2.918 10.572-2.918 0.86805 0 1.7715 0.24436 2.709 0.73047 1.5625 0.83334 2.7604 1.25 3.5938 1.25 1.4583 0 2.7083-0.52083 3.75-1.5625 1.0417-1.0764 1.5625-2.3965 1.5625-3.959 0-1.7708-0.78125-3.2292-2.3438-4.375-2.3958-1.7014-5.7632-2.5527-10.104-2.5527zm43.854 20.365c-1.8403 0-3.4729 0.33051-4.8965 0.99023-1.3889 0.625-2.9514 1.7869-4.6875 3.4883v-3.0195h-10.156c-2.5694 0-4.3924 0.50282-5.4688 1.5098-1.1111 0.97222-1.666 2.2402-1.666 3.8027s0.53885 2.8466 1.6152 3.8535c1.0764 1.0069 2.7431 1.5098 5 1.5098v25.938c-2.2569 0-3.9236 0.50478-5 1.5117-1.0764 0.97222-1.6152 2.2383-1.6152 3.8008 0 1.5972 0.55491 2.8993 1.666 3.9062 1.0764 0.97223 2.8993 1.459 5.4688 1.459h9.6367c2.5694 0 4.3924-0.48676 5.4687-1.459 1.1111-1.0069 1.666-2.291 1.666-3.8535s-0.5549-2.8466-1.666-3.8535c-1.0764-1.0069-2.727-1.5117-4.9492-1.5117v-21.51c1.7014-2.3264 3.1597-3.8709 4.375-4.6348 1.2153-0.79861 2.4492-1.1992 3.6992-1.1992 1.2153 0 2.1168 0.33052 2.707 0.99024 0.625 0.625 0.9375 1.7368 0.9375 3.334v33.697h10.156c2.5694 0 4.3924-0.48676 5.4688-1.459 1.0764-1.0069 1.6152-2.291 1.6152-3.8535s-0.53884-2.8466-1.6152-3.8535c-1.0764-1.0069-2.725-1.5117-4.9473-1.5117v-21.51c1.8403-2.3958 3.4028-4.0284 4.6875-4.8965 1.007-0.625 2.1007-0.9375 3.2812-0.9375 1.2153 0 2.1187 0.3125 2.709 0.9375 0.59028 0.625 0.88477 1.7548 0.88477 3.3867v33.697h10.156c2.5694 0 4.3924-0.48676 5.4688-1.459 1.0764-1.0069 1.6152-2.291 1.6152-3.8535 1e-5 -1.5625-0.53884-2.8466-1.6152-3.8535-1.0764-1.0069-2.725-1.5117-4.9473-1.5117v-23.906c0-4.5139-1.6326-8.1597-4.8965-10.938-2.4653-2.118-5.6764-3.1758-9.6348-3.1758-1.9792 0-3.9243 0.38064-5.834 1.1445-1.875 0.72917-3.732 1.8589-5.5723 3.3867-1.4583-1.5278-2.9527-2.6736-4.4805-3.4375-1.5278-0.76389-3.0723-1.1465-4.6348-1.1465zm-52.553 16.771c2.7083 0 5.1402 1.1979 7.293 3.5938 2.1875 2.3958 3.2813 5.3987 3.2813 9.0098 0 3.1597-0.95552 5.6597-2.8652 7.5-1.875 1.8403-4.5653 2.7598-8.0723 2.7598-3.507 0-6.2153-0.76323-8.125-2.291-1.875-1.5278-3.3694-4.3744-4.4805-8.541 1.5972-3.7847 3.6124-6.7374 6.043-8.8555 2.4653-2.118 4.773-3.1758 6.9258-3.1758z" fill="#08bed0"/>
  <path d="m50.8 170v118.53" fill="none" stroke-linecap="round" stroke-linejoin="round" stroke-width="3" style="paint-order:stroke fill markers"/>
  <g stroke-linecap="round" stroke-linejoin="round">
   <path d="m88.9 288.53h-76.2" fill="none" stroke-width="4.2426" style="paint-order:stroke fill markers"/>
   <g fill="#08bed0">
    <path d="m38.759 280.73 3.5748 3.5748 3.5748-3.5748h-1.7874v-5.3622h-3.5748v5.3622z" stroke-width="1.2667"/>
    <g stroke-width="1.2667">
     <path d="m26.059 280.73 3.5748 3.5748 3.5748-3.5748h-1.7874v-5.3622h-3.5748v5.3622z"/>
     <path d="m13.359 280.73 3.5748 3.5748 3.5748-3.5748h-1.7874v-5.3622h-3.5748v5.3622z"/>
     <path d="m81.092 280.73 3.5748 3.5748 3.5748-3.5748h-1.7874v-5.3622h-3.5748v5.3622z"/>
    </g>
    <path d="m68.392 280.73 3.5748 3.5748 3.5748-3.5748h-1.7874v-5.3622h-3.5748v5.3622z" stroke-width="1.2667"/>
    <path d="m55.692 280.73 3.5748 3.5748 3.5748-3.5748h-1.7874v-5.3622h-3.5748v5.3622z" stroke-width="1.2667"/>
   </g>
  </g>
  <g transform="rotate(180 50.8 229.27)" stroke-linecap="round" stroke-linejoin="round">
   <path d="m88.9 288.53h-76.2" fill="none" stroke-width="4.2426" style="paint-order:stroke fill markers"/>
   <g fill="#08bed0">
    <path d="m38.759 280.73 3.5748 3.5748 3.5748-3.5748h-1.7874v-5.3622h-3.5748v5.3622z" stroke-width="1.2667"/>
    <g stroke-width="1.2667">
     <path d="m26.059 280.73 3.5748 3.5748 3.5748-3.5748h-1.7874v-5.3622h-3.5748v5.3622z"/>
     <path d="m13.359 280.73 3.5748 3.5748 3.5748-3.5748h-1.7874v-5.3622h-3.5748v5.3622z"/>
     <path d="m81.092 280.73 3.5748 3.5748 3.5748-3.5748h-1.7874v-5.3622h-3.5748v5.3622z"/>
    </g>
    <path d="m68.392 280.73 3.5748 3.5748 3.5748-3.5748h-1.7874v-5.3622h-3.5748v5.3622z" stroke-width="1.2667"/>
    <path d="m55.692 280.73 3.5748 3.5748 3.5748-3.5748h-1.7874v-5.3622h-3.5748v5.3622z" stroke-width="1.2667"/>
   </g>
  </g>
 </g>
</svg>
