<?xml version="1.0" encoding="iso-8859-1"?>
<!-- Generator: Adobe Illustrator 18.0.0, SVG Export Plug-In . SVG Version: 6.00 Build 0)  -->
<!DOCTYPE svg PUBLIC "-//W3C//DTD SVG 1.1//EN" "http://www.w3.org/Graphics/SVG/1.1/DTD/svg11.dtd">
<svg version="1.1" id="Capa_1" xmlns="http://www.w3.org/2000/svg" xmlns:xlink="http://www.w3.org/1999/xlink" x="0px" y="0px"
	 viewBox="0 0 253.449 253.449" style="enable-background:new 0 0 253.449 253.449;" xml:space="preserve">
<g>
	<path style="fill:#1D1D1B;" d="M210.365,73.045c2.202-15.012,4.319-30.007,6.355-44.942c0.974-0.497,1.523-1.768,0.46-2.662
		c-0.107-0.09-0.23-0.166-0.338-0.255c-0.226-0.447-0.646-0.745-1.1-0.833C184.503-0.636,130.842-1.704,93.132,1.049
		C70.227,2.721,47.373,7.058,25.618,14.473c-7.787,2.655-15.665,5.885-17.051,13.194c-0.373-0.512-1.322-0.606-1.611,0.054
		c-0.675,1.54-0.296,3.143-0.097,4.779c0.166,1.359,0.132,3.246,0.745,4.476c0.048,0.098,0.123,0.184,0.197,0.268
		c7.146,64.009,19.182,130.063,35.639,192.325c0.222,0.842,0.845,1.178,1.484,1.165c7.822,21.601,41.856,21.244,61.184,22.069
		c16.014,0.683,34.775,1.795,50.395-2.634c11.843-3.358,18.766-12.783,25.062-22.71c0.64-0.017,1.235-0.392,1.428-1.263
		c1.682-7.57,3.295-15.174,4.869-22.796c14.533-0.002,29.097-3.905,39.885-14.183c12.378-11.793,14.905-29.77,17.564-45.811
		C249.897,115.738,246.136,74.761,210.365,73.045z M59.705,9.326c17.16-3.374,34.609-5.105,52.094-5.216
		c32.128-0.204,75.985,2.067,102.171,23.202c-0.008,0.041-0.015,0.082-0.023,0.122c-0.318-0.016-0.65,0.067-0.953,0.32
		c-15.255,12.759-37.008,11.038-55.633,11.793c-15.203,0.616-30.417,1.006-45.633,0.946c-15.185-0.06-30.373-0.551-45.515-1.715
		c-10.668-0.82-21.305-1.956-31.896-3.481c-6.846-0.985-17.671-1.034-22.778-7.076C17.729,15.184,49.078,11.416,59.705,9.326z
		 M179.855,223.626c-0.465,0.106-0.908,0.369-1.234,0.88c-8.137,12.736-16.019,21.139-32.111,23.104
		c-10.243,1.25-20.758,1.489-31.07,1.395c-21.256-0.193-57.593,1.349-68.856-20.519C35.228,164.791,22.788,100.789,9.949,37.364
		c0.058-0.147,0.09-0.319,0.064-0.542c-0.023-0.204-0.171-0.307-0.33-0.346C9.563,36.222,9.371,36.068,9.113,36
		c0.008-0.213,0.006-0.426,0.023-0.638c0.015-0.375,0.019-0.749,0.031-1.123c0.514,0.274,1.33-0.009,1.295-0.723
		c-0.049-0.983,0.043-1.919,0.232-2.821c6.484,7.676,20.68,7.228,29.665,8.445c22.571,3.058,45.346,4.303,68.111,4.525
		c22.79,0.222,45.672-0.412,68.418-1.853c13.485-0.854,25.775-2.476,36.419-10.941C201.402,94.811,189.19,159.297,179.855,223.626z
		 M206.131,100.961c6.793,3.497,13.406,11.741,14.271,18.272c0.572,4.325-0.133,10.308-0.352,14.65
		c-0.835,16.577-5.838,37.425-26.081,38.437C198.417,148.639,202.419,124.808,206.131,100.961z M239.352,153.863
		c-5.771,28.706-22.202,43.534-50.957,46.979c1.779-8.686,3.458-17.415,5.111-26.153c21.712,1.825,29.273-20.16,30.359-38.242
		c1.055-17.583,2.622-36.352-17.12-39.502c1.038-6.729,2.09-13.458,3.083-20.183C249.174,78.794,244.769,126.924,239.352,153.863z"
		/>
	<path style="fill:#1D1D1B;" d="M170.389,236.207c-21.47,0.759-42.999,2.01-64.43,3.518c-0.484,0.034-0.496,0.777,0,0.764
		c21.463-0.568,42.999-1.404,64.43-2.722C171.382,237.705,171.397,236.171,170.389,236.207z"/>
	<path style="fill:#1D1D1B;" d="M177.23,225.858c-0.849,0.076-1.699,0.152-2.55,0.228c-0.838,0.075-0.854,1.264,0,1.316
		c-3.54-0.212-7.689-1.087-11.785-0.922c-5.574,0.223-11.15,0.415-16.728,0.579c-10.358,0.305-20.716,0.492-31.078,0.597
		c-0.585,0.006-0.587,0.908,0,0.91c20.718,0.051,41.438-0.198,62.142-1.01C178.33,227.511,178.308,225.761,177.23,225.858z"/>
	<path style="fill:#1D1D1B;" d="M180.053,215.308c-17.667-0.811-35.456,0.01-53.149-0.431c-0.598-0.015-0.596,0.907,0,0.926
		c17.625,0.548,35.534,1.736,53.149,0.675C180.803,216.433,180.81,215.343,180.053,215.308z"/>
	<path style="fill:#1D1D1B;" d="M185.421,199.845c-16.202,0.69-32.081,1.96-48.326,1.1c-0.828-0.044-0.819,1.228,0,1.283
		c16,1.083,32.627,1.563,48.49-1.171C186.272,200.94,186.11,199.816,185.421,199.845z"/>
	<path style="fill:#1D1D1B;" d="M187.022,189.27c-13.032-0.788-26.137-0.843-39.186-1.212c-0.838-0.023-0.836,1.271,0,1.3
		c13.048,0.443,26.13,1.205,39.186,1.228C187.875,190.588,187.861,189.321,187.022,189.27z"/>
	<path style="fill:#1D1D1B;" d="M195.617,177.274c-13.262,0.077-26.467,0.711-39.738,0.346c-0.733-0.02-0.729,1.107,0,1.137
		c13.197,0.552,26.574,0.96,39.738-0.313C196.352,178.372,196.383,177.269,195.617,177.274z"/>
	<path style="fill:#1D1D1B;" d="M194.019,163.52c-11.287-0.288-22.527,0.369-33.828-0.262c-0.765-0.042-0.755,1.13,0,1.186
		c11.128,0.829,22.715,1.67,33.828,0.326C194.798,164.677,194.847,163.541,194.019,163.52z"/>
	<path style="fill:#1D1D1B;" d="M194.009,155.245c-9.78-0.392-19.816,0.708-29.537,1.715c-0.541,0.056-0.562,0.896,0,0.86
		c9.831-0.618,19.725-0.505,29.537-1.211C194.879,156.547,194.895,155.28,194.009,155.245z"/>
	<path style="fill:#1D1D1B;" d="M194.023,144.002c-8.944-0.419-17.891,0.113-26.854-0.49c-0.658-0.044-0.653,0.976,0,1.024
		c8.788,0.646,18.089,1.421,26.854,0.279C194.529,144.749,194.561,144.027,194.023,144.002z"/>
	<path style="fill:#1D1D1B;" d="M197.121,134.027c-5.388,0.751-10.572,1.106-15.983,0.4c-0.469-0.061-0.584,0.76-0.113,0.829
		c5.417,0.805,10.983,0.916,16.33-0.383C197.918,134.736,197.663,133.951,197.121,134.027z"/>
	<path style="fill:#1D1D1B;" d="M197.809,124.218c-4.202,0.031-8.377,0.505-12.587,0.475c-2.149-0.015-5.246-0.958-6.984,0.564
		c-0.186,0.163-0.196,0.461-0.086,0.666c0.32,0.589,0.423,0.603,1.102,0.653c0.22,0.016,0.435-0.17,0.491-0.374
		c0.027-0.095,0.052-0.19,0.079-0.285c0.036-0.13,0.004-0.229-0.039-0.321c2.318,0.027,8.292,0.447,9.145,0.435
		c3.026-0.041,6.055-0.148,9.021-0.761C198.549,125.148,198.404,124.214,197.809,124.218z"/>
	<path style="fill:#1D1D1B;" d="M200.629,112.676c-0.09-0.185-0.179-0.369-0.267-0.553c-0.203-0.42-0.931-0.226-0.893,0.242
		c0.076,0.936-20.771,1.103-22.646,1.145c-1.044,0.023-1.047,1.647,0,1.625c5.126-0.112,10.25-0.224,15.376-0.335
		c2.525-0.054,6.524,0.778,8.338-1.402C200.719,113.178,200.755,112.934,200.629,112.676z"/>
	<path style="fill:#1D1D1B;" d="M200.99,104.781c-8.957-0.082-17.887,0.195-26.845-0.15c-0.942-0.036-0.936,1.414,0,1.462
		c8.92,0.459,17.933,0.812,26.845,0.085C201.873,106.106,201.902,104.789,200.99,104.781z"/>
	<path style="fill:#1D1D1B;" d="M203.137,96.099c-8.776,0.015-17.524,0.544-26.308,0.347c-1.153-0.026-1.149,1.749,0,1.787
		c8.728,0.289,17.625,0.497,26.308-0.591C204.092,97.522,204.161,96.097,203.137,96.099z"/>
	<path style="fill:#1D1D1B;" d="M203.141,85.315c-8.434-0.055-16.605,0.036-24.982-1.249c-1.193-0.183-1.716,1.634-0.506,1.833
		c8.443,1.388,17.195,2.229,25.71,1.075C204.326,86.845,204.065,85.322,203.141,85.315z"/>
	<path style="fill:#1D1D1B;" d="M204.745,75.098c-7.801-0.427-15.814-0.163-23.622,0.122c-0.856,0.032-0.858,1.301,0,1.333
		c7.807,0.285,15.821,0.549,23.622,0.122C205.759,76.618,205.76,75.153,204.745,75.098z"/>
	<path style="fill:#1D1D1B;" d="M209.582,64c-10.061-0.333-20.027-0.316-30.065-1.305c-1.022-0.101-1.005,1.483,0,1.592
		c9.912,1.072,20.094,1.963,30.065,1.321C210.607,65.542,210.624,64.035,209.582,64z"/>
	<path style="fill:#1D1D1B;" d="M211.739,54.476c-10.157-0.068-20.458,0.956-30.617,1.401c-0.656,0.029-0.662,1.004,0,1.023
		c10.118,0.295,20.773,0.442,30.794-1.116C212.673,55.667,212.469,54.481,211.739,54.476z"/>
	<path style="fill:#1D1D1B;" d="M213.335,47.718c-7.512-0.257-15.11,0.734-22.548,1.708c-0.859,0.112-0.897,1.469,0,1.381
		c7.503-0.734,15.046-0.826,22.548-1.513C214.332,49.202,214.364,47.753,213.335,47.718z"/>
</g>
<g>
</g>
<g>
</g>
<g>
</g>
<g>
</g>
<g>
</g>
<g>
</g>
<g>
</g>
<g>
</g>
<g>
</g>
<g>
</g>
<g>
</g>
<g>
</g>
<g>
</g>
<g>
</g>
<g>
</g>
</svg>
